<svg width="24" height="24" viewBox="0 0 24 24" fill="none" xmlns="http://www.w3.org/2000/svg">
<path d="M12.0052 22.9511V22.951L11.9949 22.9512C11.8321 22.9545 11.5625 22.8779 11.18 22.6477C10.809 22.4244 10.3819 22.0874 9.91857 21.6499C8.99299 20.776 7.96559 19.5424 7.00592 18.1415C6.04709 16.7418 5.16596 15.1897 4.52628 13.6848C3.88332 12.1722 3.5 10.7436 3.5 9.57998C3.5 4.81446 7.3356 0.998901 12.0052 0.998901C16.673 0.998901 20.5104 4.86256 20.5104 9.57998C20.5104 10.7387 20.1084 12.1612 19.4386 13.6706C18.7725 15.1716 17.8592 16.7197 16.8778 18.1181C15.896 19.5172 14.8556 20.7527 13.9422 21.6322C13.4847 22.0728 13.0691 22.4142 12.7171 22.642C12.347 22.8816 12.1142 22.9511 12.0052 22.9511Z" stroke="white" stroke-miterlimit="10" stroke-linecap="round" stroke-linejoin="round"/>
<path d="M14.4245 10.2286C14.4245 11.5823 13.3374 12.6725 12.0052 12.6725C10.673 12.6725 9.58594 11.5823 9.58594 10.2286C9.58594 8.87495 10.673 7.78476 12.0052 7.78476C13.3374 7.78476 14.4245 8.87495 14.4245 10.2286Z" stroke="white" stroke-miterlimit="10" stroke-linecap="round" stroke-linejoin="round"/>
</svg>
