<svg width="19" height="24" viewBox="0 0 19 24" fill="none" xmlns="http://www.w3.org/2000/svg">
<g clip-path="url(#clip0_2_1692)">
<path d="M9.49996 22.9511V22.951L9.48967 22.9512C9.32686 22.9545 9.05724 22.8779 8.67474 22.6477C8.30379 22.4244 7.87669 22.0874 7.41332 21.6499C6.48775 20.776 5.46035 19.5424 4.50067 18.1415C3.54184 16.7418 2.66071 15.1897 2.02103 13.6848C1.37807 12.1722 0.994751 10.7436 0.994751 9.57998C0.994751 4.81446 4.83035 0.998901 9.49996 0.998901C14.1678 0.998901 18.0052 4.86256 18.0052 9.57998C18.0052 10.7387 17.6031 12.1612 16.9333 13.6706C16.2672 15.1716 15.3539 16.7197 14.3726 18.1181C13.3907 19.5172 12.3504 20.7527 11.4369 21.6322C10.9794 22.0728 10.5639 22.4142 10.2119 22.642C9.84172 22.8816 9.6089 22.9511 9.49996 22.9511Z" stroke="black" stroke-miterlimit="10" stroke-linecap="round" stroke-linejoin="round"/>
<path d="M11.9192 10.2287C11.9192 11.5823 10.8321 12.6725 9.49996 12.6725C8.16778 12.6725 7.08069 11.5823 7.08069 10.2287C7.08069 8.87498 8.16778 7.78479 9.49996 7.78479C10.8321 7.78479 11.9192 8.87498 11.9192 10.2287Z" stroke="black" stroke-miterlimit="10" stroke-linecap="round" stroke-linejoin="round"/>
</g>
<defs>
<clipPath id="clip0_2_1692">
<rect width="19" height="24" fill="white"/>
</clipPath>
</defs>
</svg>
